<svg width="54" height="54" viewBox="0 0 54 54" fill="none" xmlns="http://www.w3.org/2000/svg">
<path d="M13.1374 22.8057C8.18411 23.9837 4.5 28.437 4.5 33.7508C4.5 39.9639 9.53679 45.0008 15.75 45.0008C16.8158 45.0008 17.847 44.8526 18.8241 44.5757" stroke="#BF6C49" stroke-width="3.375" stroke-linecap="round" stroke-linejoin="round"/>
<path d="M40.5616 22.8057C45.515 23.9837 49.1991 28.437 49.1991 33.7508C49.1991 39.9639 44.1623 45.0008 37.9491 45.0008C36.8832 45.0008 35.8521 44.8526 34.875 44.5757" stroke="#BF6C49" stroke-width="3.375" stroke-linecap="round" stroke-linejoin="round"/>
<path d="M40.5 22.5C40.5 15.0442 34.4558 9 27 9C19.5442 9 13.5 15.0442 13.5 22.5" stroke="#BF6C49" stroke-width="3.375" stroke-linecap="round" stroke-linejoin="round"/>
<path d="M19.1973 31.3661L26.9986 23.5391L35.022 31.5" stroke="#BF6C49" stroke-width="3.375" stroke-linecap="round" stroke-linejoin="round"/>
<path d="M27 42.75V27.5195" stroke="#BF6C49" stroke-width="3.375" stroke-linecap="round" stroke-linejoin="round"/>
</svg>
